<?xml version="1.0" encoding="UTF-8"?>
<svg xmlns="http://www.w3.org/2000/svg" viewBox="0 0 100 100">
  <path d="M45 15C25 15 10 28 10 45C10 55 15 63 23 68L18 82L35 73C38 74 42 75 45 75C65 75 80 62 80 45C80 28 65 15 45 15Z" fill="#5B9A9A"/>
  <text x="38" y="52" font-family="Arial, sans-serif" font-size="28" font-weight="600" fill="white">&#xe9;</text>
  <path d="M70 45C55 45 43 55 43 68C43 75 47 81 53 85L50 95L62 88C64 89 67 89 70 89C85 89 97 79 97 68C97 55 85 45 70 45Z" fill="#E89B8C"/>
  <text x="62" y="75" font-family="Arial, sans-serif" font-size="20" font-weight="600" fill="white">&#x6587;</text>
</svg>
